<svg viewBox="0 0 196 136" xmlns="http://www.w3.org/2000/svg" xmlns:xlink="http://www.w3.org/1999/xlink"><style>:root&gt;svg{display:none}:root&gt;svg:target{display:block}</style><svg fill="none" viewBox="0 0 38 24" id="css--amex" xmlns="http://www.w3.org/2000/svg"><path opacity=".07" d="M35 0H3C1.3 0 0 1.3 0 3v18c0 1.7 1.4 3 3 3h32c1.7 0 3-1.3 3-3V3c0-1.7-1.4-3-3-3z" fill="#000"/><path d="M35 1c1.1 0 2 .9 2 2v18c0 1.1-.9 2-2 2H3c-1.1 0-2-.9-2-2V3c0-1.1.9-2 2-2h32z" fill="#006FCF"/><path d="M8.971 10.268l.774 1.876H8.203l.768-1.876zm16.075.078h-2.977v.827h2.929v1.239h-2.923v.922h2.977v.739l2.077-2.245-2.077-2.34-.006.858zm-14.063-2.34h3.995l.887 1.935L16.687 8h10.37l1.078 1.19L29.25 8h4.763l-3.519 3.852 3.483 3.828h-4.834l-1.078-1.19-1.125 1.19H10.03l-.494-1.19h-1.13l-.495 1.19H4L7.286 8h3.43l.267.006zm8.663 1.078h-2.239l-1.5 3.536-1.625-3.536H12.06v4.81L10 9.084H8.007l-2.382 5.512H7.18l.494-1.19h2.596l.494 1.19h2.72v-3.935l1.751 3.941h1.19l1.74-3.929v3.93h1.458l.024-5.52-.001.001zm9.34 2.768l2.531-2.768h-1.822l-1.601 1.726-1.548-1.726h-5.894v5.518h5.81l1.614-1.738 1.548 1.738h1.875l-2.512-2.75h-.001z" fill="#fff"/></svg><svg fill="none" viewBox="0 0 38 24" id="css--apple-pay" xmlns="http://www.w3.org/2000/svg"><path d="M34.387 0H3.228l-.324.006a4.64 4.64 0 00-.705.062 2.38 2.38 0 00-.67.22 2.25 2.25 0 00-.985.986 2.37 2.37 0 00-.22.67 4.66 4.66 0 00-.063.705 15.91 15.91 0 00-.005.324v18.054c0 .108.002.216.005.324.006.235.02.472.062.705.04.233.114.459.22.67a2.24 2.24 0 00.986.985c.215.11.434.18.67.222.233.041.47.055.705.061a19.433 19.433 0 00.709.006h30.774l.385-.001c.107 0 .215-.002.324-.005a4.77 4.77 0 00.705-.061c.233-.04.459-.115.67-.222.424-.216.769-.56.985-.985.11-.214.179-.434.22-.67.043-.233.056-.47.063-.705.003-.108.004-.216.005-.324V2.973c0-.108-.003-.216-.005-.324a4.67 4.67 0 00-.063-.705 2.354 2.354 0 00-.22-.67 2.252 2.252 0 00-.985-.985 2.384 2.384 0 00-.67-.221 4.697 4.697 0 00-.705-.062A16.167 16.167 0 0034.772 0h-.385z" fill="#000"/><path d="M34.387.8h.379c.102.001.205.002.308.005.18.005.39.015.585.05.17.03.312.077.45.147.273.139.495.361.634.635.07.136.116.278.146.45.035.193.045.403.05.584.003.102.004.204.004.308l.001.378v17.666c0 .102-.002.204-.005.306a4 4 0 01-.05.587 1.555 1.555 0 01-.146.447 1.45 1.45 0 01-.636.636c-.136.07-.278.116-.447.146-.2.035-.418.045-.582.05l-.313.004H3.232c-.102 0-.204-.002-.306-.004a4.078 4.078 0 01-.585-.05 1.572 1.572 0 01-.45-.147 1.438 1.438 0 01-.634-.635 1.57 1.57 0 01-.146-.45 3.911 3.911 0 01-.05-.584 14.956 14.956 0 01-.005-.306V2.978c0-.103.002-.205.005-.307.005-.18.014-.39.05-.586.026-.156.075-.308.146-.449a1.44 1.44 0 01.635-.635c.141-.07.293-.12.449-.146.196-.035.406-.045.585-.05.103-.003.205-.004.307-.005h31.154z" fill="#fff"/><path d="M10.11 8.102c.318-.398.533-.932.476-1.477-.465.023-1.032.307-1.361.705-.295.34-.556.897-.488 1.419.522.045 1.044-.26 1.373-.647zm.47.749c-.758-.045-1.403.43-1.765.43-.362 0-.917-.407-1.517-.396a2.237 2.237 0 00-1.901 1.155c-.815 1.404-.215 3.488.577 4.632.385.566.849 1.189 1.46 1.166.578-.022.804-.373 1.505-.373.702 0 .906.373 1.517.362.634-.011 1.03-.566 1.415-1.132.442-.646.622-1.269.633-1.303-.01-.011-1.222-.476-1.233-1.868-.011-1.167.95-1.722.996-1.756-.543-.804-1.392-.894-1.687-.917m7.562-1.578c1.649 0 2.797 1.136 2.797 2.79 0 1.66-1.172 2.803-2.838 2.803h-1.825v2.903h-1.319V7.273h3.185zm-1.866 4.486h1.513c1.148 0 1.801-.618 1.801-1.69 0-1.07-.653-1.683-1.795-1.683h-1.52v3.373zm4.99 2.249c0-1.09.83-1.713 2.36-1.807l1.643-.1v-.472c0-.688-.453-1.065-1.26-1.065-.665 0-1.148.341-1.248.865h-1.19c.036-1.1 1.072-1.901 2.474-1.901 1.507 0 2.49.789 2.49 2.013v4.227h-1.219V14.75h-.03c-.347.665-1.112 1.083-1.942 1.083-1.225 0-2.078-.73-2.078-1.825zm4.003-.547v-.477l-1.466.094c-.824.053-1.254.359-1.254.895 0 .518.448.853 1.148.853.895 0 1.572-.57 1.572-1.365zm2.386 4.579v-1.017c.083.011.283.023.389.023.582 0 .912-.247 1.112-.883l.118-.377-2.231-6.182h1.377l1.555 5.016h.03l1.553-5.016h1.343l-2.314 6.494c-.53 1.49-1.136 1.978-2.42 1.978-.1 0-.424-.011-.512-.035z" fill="#000"/></svg><svg fill="none" viewBox="0 0 6 12" id="css--facebook" xmlns="http://www.w3.org/2000/svg"><path d="M3.898 12V6.535h1.777l.264-2.14H3.898V3.033c0-.618.166-1.04 1.02-1.04H6V.084A13.84 13.84 0 004.415 0c-1.571 0-2.65.995-2.65 2.821v1.57H0v2.14h1.77V12h2.128z" fill="#fff"/></svg><svg fill="none" viewBox="0 0 38 24" id="css--google-pay" xmlns="http://www.w3.org/2000/svg"><path opacity=".07" d="M35 0H3C1.3 0 0 1.3 0 3v18c0 1.7 1.4 3 3 3h32c1.7 0 3-1.3 3-3V3c0-1.7-1.4-3-3-3z" fill="#000"/><path d="M35 1c1.1 0 2 .9 2 2v18c0 1.1-.9 2-2 2H3c-1.1 0-2-.9-2-2V3c0-1.1.9-2 2-2h32z" fill="#fff"/><path d="M18.093 11.976v3.2h-1.018v-7.9h2.691a2.447 2.447 0 011.747.692 2.28 2.28 0 01.11 3.224l-.11.116c-.47.447-1.098.69-1.747.674l-1.673-.006zm0-3.732v2.788h1.698a1.348 1.348 0 001.37-1.117 1.39 1.39 0 00-1.37-1.64l-1.698-.03zm6.484 1.348c.65-.03 1.286.188 1.778.613.445.43.682 1.03.65 1.65v3.333h-.97v-.766h-.048a1.93 1.93 0 01-1.673.931 2.17 2.17 0 01-1.496-.533 1.667 1.667 0 01-.613-1.324 1.605 1.605 0 01.613-1.336 2.747 2.747 0 011.698-.515c.517-.02 1.03.093 1.49.331v-.208a1.136 1.136 0 00-.417-.9 1.417 1.417 0 00-.98-.369 1.546 1.546 0 00-1.319.717l-.895-.564a2.488 2.488 0 012.182-1.06zM23.29 13.52a.788.788 0 00.337.662c.223.176.5.27.785.263.429 0 .84-.17 1.146-.472.305-.286.478-.685.478-1.103a2.047 2.047 0 00-1.324-.374 1.716 1.716 0 00-1.03.294.885.885 0 00-.392.73zm9.286-3.75l-3.39 7.79h-1.048l1.281-2.728-2.224-5.062h1.103l1.612 3.885 1.569-3.885h1.097z" fill="#5F6368"/><path d="M13.986 11.284c0-.308-.024-.616-.073-.92h-4.29v1.747h2.451a2.096 2.096 0 01-.9 1.373v1.134h1.464a4.433 4.433 0 001.348-3.334z" fill="#4285F4"/><path d="M9.629 15.72a4.352 4.352 0 003.01-1.096l-1.466-1.14a2.752 2.752 0 01-4.094-1.44H5.577v1.17a4.53 4.53 0 004.052 2.507z" fill="#34A853"/><path d="M7.079 12.05a2.71 2.71 0 010-1.735v-1.17H5.577a4.505 4.505 0 000 4.075l1.502-1.17z" fill="#FBBC04"/><path d="M9.629 8.44a2.452 2.452 0 011.74.68l1.3-1.293a4.37 4.37 0 00-3.065-1.183 4.53 4.53 0 00-4.027 2.5l1.502 1.171a2.715 2.715 0 012.55-1.875z" fill="#EA4335"/></svg><svg fill="none" viewBox="0 0 12 13" id="css--instagram" xmlns="http://www.w3.org/2000/svg"><path d="M5.995 2.913a3.081 3.081 0 100 6.163 3.081 3.081 0 000-6.163zm0 5.083a2.002 2.002 0 110-4.004 2.002 2.002 0 010 4.004zm3.204-4.478a.718.718 0 100-1.436.718.718 0 000 1.437z" fill="#fff"/><path d="M11.682 2.07A3.068 3.068 0 009.928.316 4.402 4.402 0 008.47.036C7.829.008 7.626 0 5.999 0 4.37 0 4.163 0 3.526.036a4.36 4.36 0 00-1.455.28A3.065 3.065 0 00.317 2.07c-.176.466-.27.959-.28 1.456C.01 4.167 0 4.371 0 6c0 1.626 0 1.833.037 2.47.01.498.104.99.28 1.457a3.072 3.072 0 001.755 1.754 4.38 4.38 0 001.456.3c.641.028.845.037 2.472.037s1.836 0 2.472-.037c.498-.01.99-.104 1.457-.28a3.075 3.075 0 001.755-1.754 4.39 4.39 0 00.279-1.456c.028-.641.037-.845.037-2.473s0-1.834-.037-2.472a4.386 4.386 0 00-.28-1.477zm-.812 6.352a3.362 3.362 0 01-.207 1.124 1.99 1.99 0 01-1.14 1.14 3.323 3.323 0 01-1.113.208c-.633.03-.812.037-2.435.037-1.625 0-1.79 0-2.436-.037a3.304 3.304 0 01-1.112-.207 1.99 1.99 0 01-1.146-1.14 3.385 3.385 0 01-.207-1.113C1.046 7.801 1.04 7.623 1.04 6s0-1.79.035-2.435c.004-.384.075-.764.207-1.124A1.99 1.99 0 012.428 1.3a3.339 3.339 0 011.112-.207c.634-.03.812-.037 2.436-.037 1.624 0 1.79 0 2.435.037.38.004.756.074 1.112.207a1.992 1.992 0 011.141 1.14c.131.357.201.733.207 1.113.03.633.037.811.037 2.435s0 1.798-.03 2.435h-.007z" fill="#fff"/></svg><svg fill="none" viewBox="0 0 24 24" id="css--linkedin" xmlns="http://www.w3.org/2000/svg"><path d="M20.47 2H3.53a1.45 1.45 0 00-1.47 1.43v17.14A1.45 1.45 0 003.53 22h16.94a1.451 1.451 0 001.47-1.43V3.43A1.45 1.45 0 0020.47 2zM8.09 18.74h-3v-9h3v9zM6.59 8.48a1.56 1.56 0 010-3.12 1.57 1.57 0 110 3.12zm12.32 10.26h-3v-4.83c0-1.21-.43-2-1.52-2A1.65 1.65 0 0012.85 13a1.998 1.998 0 00-.1.73v5h-3v-9h3V11a3 3 0 012.71-1.5c2 0 3.45 1.29 3.45 4.06v5.18z" fill="#fff"/></svg><svg fill="none" viewBox="0 0 196 82" id="css--logo" xmlns="http://www.w3.org/2000/svg"><path d="M22.837 1.072c4.736 0 8.875.939 12.417 2.816 3.54 1.877 6.272 4.523 8.192 7.936 1.962 3.37 2.944 7.275 2.944 11.712 0 4.395-.982 8.299-2.944 11.712-1.92 3.413-4.672 6.059-8.256 7.936C31.648 45.061 27.53 46 22.838 46H6.005V1.072h16.832zm-.703 35.456c4.138 0 7.36-1.13 9.663-3.392 2.305-2.261 3.457-5.461 3.457-9.6 0-4.139-1.152-7.36-3.456-9.664-2.304-2.304-5.526-3.456-9.664-3.456H16.95v26.112h5.184zM73.049 9.84v9.088h14.656v8.448H73.05v9.856h16.576V46h-27.52V1.072h27.52V9.84H73.05zm49.537 36.608c-3.285 0-6.229-.533-8.832-1.6-2.602-1.067-4.693-2.645-6.272-4.736-1.536-2.09-2.346-4.608-2.432-7.552h11.648c.171 1.664.747 2.944 1.728 3.84.982.853 2.262 1.28 3.84 1.28 1.622 0 2.902-.363 3.84-1.088.939-.768 1.408-1.813 1.408-3.136 0-1.11-.384-2.027-1.152-2.752-.725-.725-1.642-1.323-2.752-1.792-1.066-.47-2.602-1.003-4.608-1.6-2.901-.896-5.269-1.792-7.104-2.688-1.834-.896-3.413-2.219-4.736-3.968-1.322-1.75-1.984-4.032-1.984-6.848 0-4.181 1.515-7.445 4.544-9.792 3.03-2.39 6.976-3.584 11.84-3.584 4.95 0 8.939 1.195 11.968 3.584 3.03 2.347 4.651 5.632 4.864 9.856h-11.84c-.085-1.45-.618-2.581-1.6-3.392-.981-.853-2.24-1.28-3.776-1.28-1.322 0-2.389.363-3.2 1.088-.81.683-1.216 1.685-1.216 3.008 0 1.45.683 2.581 2.048 3.392 1.366.81 3.499 1.685 6.4 2.624 2.902.981 5.248 1.92 7.04 2.816 1.835.896 3.414 2.197 4.736 3.904 1.323 1.707 1.984 3.904 1.984 6.592 0 2.56-.661 4.885-1.984 6.976-1.28 2.09-3.157 3.755-5.632 4.992-2.474 1.237-5.397 1.856-8.768 1.856zM181.353 46l-15.104-19.84V46h-10.944V1.072h10.944v19.712l14.976-19.712h12.864l-17.408 22.016L194.729 46h-13.376z" fill="#083C6E"/><path d="M19.949 70.154c0 1.276-.44 2.34-1.32 3.19-.865.836-2.193 1.254-3.982 1.254h-2.948V81H9.697V65.666h4.95c1.73 0 3.043.418 3.938 1.254.91.836 1.364 1.914 1.364 3.234zm-5.302 2.794c1.115 0 1.936-.242 2.464-.726s.792-1.173.792-2.068c0-1.892-1.085-2.838-3.256-2.838h-2.948v5.632h2.948zm53.792 6.424h5.368V81h-7.37V65.666h2.002v13.706zm53.452-13.706v9.702c0 1.364.33 2.376.99 3.036.675.66 1.606.99 2.794.99 1.174 0 2.09-.33 2.75-.99.675-.66 1.012-1.672 1.012-3.036v-9.702h2.002v9.68c0 1.276-.256 2.354-.77 3.234a4.835 4.835 0 01-2.09 1.936c-.865.425-1.84.638-2.926.638-1.085 0-2.068-.213-2.948-.638-.865-.425-1.554-1.07-2.068-1.936-.498-.88-.748-1.958-.748-3.234v-9.68h2.002zm61.75 15.488c-1.012 0-1.921-.176-2.728-.528-.792-.367-1.415-.865-1.87-1.496-.455-.645-.689-1.386-.704-2.222h2.134c.073.719.367 1.327.88 1.826.528.484 1.291.726 2.288.726.953 0 1.701-.235 2.244-.704.557-.484.836-1.1.836-1.848 0-.587-.161-1.063-.484-1.43a3.094 3.094 0 00-1.21-.836 19.098 19.098 0 00-1.958-.616c-1.012-.264-1.826-.528-2.442-.792a4.058 4.058 0 01-1.562-1.232c-.425-.572-.638-1.335-.638-2.288 0-.836.213-1.577.638-2.222.425-.645 1.019-1.144 1.782-1.496.777-.352 1.665-.528 2.662-.528 1.437 0 2.611.36 3.52 1.078.924.719 1.445 1.672 1.562 2.86h-2.2c-.073-.587-.381-1.1-.924-1.54-.543-.455-1.261-.682-2.156-.682-.836 0-1.518.22-2.046.66-.528.425-.792 1.027-.792 1.804 0 .557.154 1.012.462 1.364.323.352.711.623 1.166.814a25.48 25.48 0 001.958.616c1.012.279 1.826.557 2.442.836a3.943 3.943 0 011.584 1.254c.44.557.66 1.32.66 2.288 0 .748-.198 1.452-.594 2.112-.396.66-.983 1.195-1.76 1.606-.777.41-1.694.616-2.75.616z" fill="#373737"/><path fill="#083C6E" d="M0 19h23v9H0z"/></svg><svg fill="none" viewBox="0 0 135 93" id="css--logo-white" xmlns="http://www.w3.org/2000/svg"><path d="M11.66 38.268c3.01-1.043 5.85-1.35 8.52-.921 2.67.428 4.996 1.53 6.977 3.305 2 1.738 3.494 4.035 4.484 6.892.98 2.83 1.228 5.559.741 8.188-.459 2.62-1.618 4.93-3.477 6.928-1.833 1.988-4.24 3.5-7.224 4.533l-10.7 3.707L.962 41.975l10.699-3.707zm7.46 22.982c2.631-.911 4.427-2.349 5.387-4.312s.979-4.277.056-6.942c-.923-2.664-2.374-4.484-4.353-5.46-1.978-.976-4.283-1.008-6.914-.097l-3.295 1.142 5.825 16.81 3.295-1.141zm26.413-28.395l2.027 5.85 9.316-3.227 1.885 5.439-9.317 3.228 2.199 6.345 10.537-3.65 1.955 5.644-17.493 6.061L36.621 29.62l17.493-6.06 1.956 5.644-10.537 3.65zm39.654 12.659c-2.088.723-4.078 1.028-5.97.915-1.893-.114-3.574-.67-5.044-1.668-1.443-1.008-2.52-2.45-3.23-4.327l7.404-2.565c.48 1.034 1.13 1.731 1.955 2.092.814.333 1.722.326 2.726-.022 1.03-.357 1.763-.872 2.198-1.546.426-.701.49-1.477.196-2.329-.248-.714-.696-1.22-1.346-1.518-.623-.307-1.34-.49-2.15-.548-.782-.067-1.877-.072-3.285-.015-2.044.062-3.75.007-5.116-.166-1.366-.173-2.664-.677-3.895-1.512-1.231-.834-2.16-2.159-2.789-3.971-.933-2.692-.698-5.127.704-7.305 1.393-2.206 3.635-3.844 6.727-4.915 3.146-1.09 5.949-1.2 8.407-.329 2.45.844 4.213 2.602 5.29 5.274l-7.526 2.608c-.378-.915-.969-1.526-1.773-1.831-.815-.334-1.71-.331-2.686.007-.841.291-1.438.76-1.792 1.405-.363.618-.397 1.353-.102 2.205.324.934 1.01 1.511 2.059 1.733 1.049.22 2.6.314 4.653.28 2.063-.008 3.764.08 5.103.262 1.367.173 2.66.663 3.882 1.47 1.221.808 2.132 2.077 2.731 3.807.571 1.648.67 3.291.295 4.928-.347 1.628-1.17 3.113-2.466 4.455-1.297 1.341-3.017 2.383-5.16 3.126zm37.256-13.231l-14.026-9.447 4.425 12.773-6.957 2.41L95.864 9.094l6.957-2.41 4.396 12.691 5.123-15.989 8.177-2.833-6.154 18.008 16.582 10.776-8.502 2.946zM25.233 83.38c.284.821.242 1.603-.128 2.344-.364.729-1.114 1.29-2.252 1.684l-1.873.65 1.428 4.121-1.273.441-3.42-9.872 3.146-1.09c1.1-.381 2.028-.401 2.783-.06.765.338 1.294.932 1.589 1.782zm-2.748 2.966c.709-.245 1.177-.582 1.405-1.01.227-.428.241-.93.042-1.506-.422-1.218-1.323-1.588-2.703-1.11l-1.874.65 1.257 3.626 1.873-.65zm35.627-7.711l3.412-1.182.363 1.048-4.685 1.623-3.42-9.872 1.273-.44 3.057 8.823zm30.92-20.595l2.164 6.246c.304.878.74 1.457 1.306 1.736.577.276 1.242.284 1.997.022.746-.258 1.255-.673 1.528-1.243.281-.573.27-1.3-.034-2.177l-2.164-6.247 1.272-.44 2.16 6.232c.284.821.361 1.572.231 2.251a3.27 3.27 0 01-.896 1.707c-.456.464-1.028.816-1.718 1.055-.69.24-1.362.319-2.016.239a3.291 3.291 0 01-1.747-.791c-.513-.457-.912-1.096-1.197-1.918L87.76 58.48l1.273-.44zm42.706-3.629c-.643.223-1.26.31-1.852.261-.585-.061-1.092-.245-1.522-.551a2.67 2.67 0 01-.943-1.276l1.356-.47c.207.447.53.774.967.982.444.196.982.183 1.616-.036.606-.21 1.03-.526 1.27-.948.246-.434.286-.892.119-1.374-.131-.377-.34-.649-.627-.814a2.079 2.079 0 00-.955-.271c-.35-.017-.811-.005-1.382.034-.702.053-1.279.063-1.729.028a2.736 2.736 0 01-1.268-.449c-.398-.275-.703-.719-.916-1.333a2.721 2.721 0 01-.09-1.57 2.82 2.82 0 01.799-1.356c.416-.398.941-.707 1.575-.926.913-.317 1.739-.344 2.477-.081.748.259 1.292.758 1.631 1.497l-1.398.484c-.178-.361-.488-.624-.931-.788-.446-.173-.954-.161-1.523.036-.531.184-.915.476-1.153.876-.241.39-.274.835-.101 1.335.124.36.324.618.598.777.284.155.591.244.923.267.337.01.798-.002 1.382-.035.705-.043 1.285-.043 1.738 0 .451.035.88.188 1.287.46.404.261.714.704.93 1.327.167.482.198.978.093 1.49-.104.513-.358.986-.76 1.422-.403.436-.939.77-1.611 1.002z" fill="#fff"/><path d="M1.142 54.84l14.62-5.065 2.007 5.794-14.62 5.065-2.007-5.794z" fill="#fff"/></svg><svg fill="none" viewBox="0 0 38 24" id="css--master-card" xmlns="http://www.w3.org/2000/svg"><path opacity=".07" d="M35 0H3C1.3 0 0 1.3 0 3v18c0 1.7 1.4 3 3 3h32c1.7 0 3-1.3 3-3V3c0-1.7-1.4-3-3-3z" fill="#000"/><path d="M35 1c1.1 0 2 .9 2 2v18c0 1.1-.9 2-2 2H3c-1.1 0-2-.9-2-2V3c0-1.1.9-2 2-2h32z" fill="#fff"/><path d="M15 19a7 7 0 100-14 7 7 0 000 14z" fill="#EB001B"/><path d="M23 19a7 7 0 100-14 7 7 0 000 14z" fill="#F79E1B"/><path d="M22 12c0-2.4-1.2-4.5-3-5.7-1.8 1.3-3 3.4-3 5.7 0 2.3 1.2 4.5 3 5.7 1.8-1.2 3-3.3 3-5.7z" fill="#FF5F00"/></svg><svg fill="none" viewBox="0 0 38 24" id="css--mastero-card" xmlns="http://www.w3.org/2000/svg"><path opacity=".07" d="M35 0H3C1.3 0 0 1.3 0 3v18c0 1.7 1.4 3 3 3h32c1.7 0 3-1.3 3-3V3c0-1.7-1.4-3-3-3z" fill="#000"/><path d="M35 1c1.1 0 2 .9 2 2v18c0 1.1-.9 2-2 2H3c-1.1 0-2-.9-2-2V3c0-1.1.9-2 2-2h32z" fill="#fff"/><path d="M15 19a7 7 0 100-14 7 7 0 000 14z" fill="#EB001B"/><path d="M23 19a7 7 0 100-14 7 7 0 000 14z" fill="#00A2E5"/><path d="M22 12c0-2.4-1.2-4.5-3-5.7-1.8 1.3-3 3.4-3 5.7 0 2.3 1.2 4.5 3 5.7 1.8-1.2 3-3.3 3-5.7z" fill="#7375CF"/></svg><svg fill="none" viewBox="0 0 136 136" id="css--quality" xmlns="http://www.w3.org/2000/svg"><g filter="url(#kfilter0_d)"><circle cx="67" cy="67" r="48" fill="#fff"/></g><path d="M63.67 59.624c.08-.11.176-.213.286-.309.111-.095.229-.186.354-.27.125-.085.252-.164.381-.238.129-.073.249-.143.36-.21.16-.095.321-.2.48-.314.158-.114.3-.247.425-.398a1.93 1.93 0 00.304-.514c.077-.191.116-.408.116-.651 0-.59-.214-1.057-.641-1.403-.427-.346-1.038-.519-1.834-.519a4.796 4.796 0 00-1.756.326c-.25.1-.473.212-.668.337a2.25 2.25 0 00-.47.386l1.116 1.303c.214-.242.435-.44.663-.59.228-.151.497-.227.806-.227.273 0 .484.063.635.188a.614.614 0 01.227.497c0 .103-.03.195-.088.276-.06.081-.16.17-.299.265-.14.096-.326.206-.558.332-.232.125-.52.28-.867.463a4.427 4.427 0 00-.812.553 2.547 2.547 0 00-.524.63 2.458 2.458 0 00-.282.75 4.699 4.699 0 00-.083.928h5.556v-1.59H63.67zm8.35-.11V54.91h-1.204l-3.612 4.616v1.58h3.049v1.513h1.767v-1.513h.972v-1.59h-.972zm-1.568 0H68.96l1.492-1.955v1.955z" fill="#083C6E"/><path d="M80.574 69.56a5.572 5.572 0 002.249-6.55 5.593 5.593 0 001.95-4.239 5.593 5.593 0 00-1.95-4.24 5.592 5.592 0 00-.43-4.645 5.593 5.593 0 00-3.81-2.697 5.593 5.593 0 00-2.696-3.808 5.595 5.595 0 00-4.647-.43A5.594 5.594 0 0067 41a5.594 5.594 0 00-4.24 1.95 5.594 5.594 0 00-4.647.43 5.594 5.594 0 00-2.696 3.81 5.594 5.594 0 00-3.81 2.696 5.592 5.592 0 00-.43 4.646 5.592 5.592 0 00-1.95 4.239c0 1.653.733 3.194 1.95 4.24a5.571 5.571 0 002.249 6.55L41.472 81.51l10.165 1.326L52.963 93 67 78.965 81.037 93l1.326-10.163 10.165-1.326L80.574 69.56zm1.153-10.789c0 1-.591 1.91-1.505 2.318l-1.63.73a12.018 12.018 0 00-.001-6.095l1.63.729a2.543 2.543 0 011.506 2.318zM58.38 69.061l.185-1.786a11.989 11.989 0 005.278 3.056l-1.447 1.048a2.544 2.544 0 01-2.76.144 2.543 2.543 0 01-1.256-2.462zm-1.672-1.672a2.543 2.543 0 01-2.463-1.256 2.543 2.543 0 01.144-2.76l1.048-1.447a11.985 11.985 0 003.057 5.278l-1.786.185zm1.353-8.618c0-4.928 4.01-8.936 8.938-8.936 4.928 0 8.938 4.008 8.938 8.936s-4.01 8.936-8.938 8.936c-4.928 0-8.938-4.008-8.938-8.936zm17.372 8.504l.185 1.786a2.544 2.544 0 01-1.256 2.462c-.866.5-1.949.443-2.76-.144l-1.447-1.047a11.991 11.991 0 005.278-3.057zm.072-.071a11.987 11.987 0 003.056-5.278l1.048 1.447c.587.811.644 1.895.144 2.76a2.545 2.545 0 01-2.463 1.256l-1.785-.185zm1.785-17.05a2.544 2.544 0 012.463 1.255c.5.866.443 1.949-.144 2.76l-1.048 1.447a11.986 11.986 0 00-3.056-5.278l1.785-.185zm-5.688-3.991a2.544 2.544 0 012.76-.144 2.543 2.543 0 011.256 2.462l-.185 1.786a11.99 11.99 0 00-5.278-3.056l1.447-1.048zm-6.922-.612A2.544 2.544 0 0167 44.046c1 0 1.91.591 2.319 1.505l.729 1.63A11.967 11.967 0 0067 46.788a11.93 11.93 0 00-3.048.394l.73-1.63zm-5.044.468a2.543 2.543 0 012.76.144l1.447 1.048a11.989 11.989 0 00-5.278 3.056l-.185-1.786a2.543 2.543 0 011.256-2.462zm-5.39 5.39a2.544 2.544 0 012.462-1.256l1.786.185a11.986 11.986 0 00-3.057 5.278l-1.048-1.447a2.543 2.543 0 01-.144-2.76zm-1.974 7.362c0-1 .591-1.91 1.505-2.318l1.63-.73a11.959 11.959 0 00-.392 3.048c0 1.053.137 2.074.393 3.047l-1.63-.729a2.543 2.543 0 01-1.506-2.318zm2.91 27.7l-.828-6.352-6.353-.829 7.771-7.77a5.584 5.584 0 002.34 2.641 5.595 5.595 0 004.647.43 5.605 5.605 0 002.602 1.703L55.184 86.47zm9.498-14.48l-.729-1.63a11.973 11.973 0 006.096-.001l-.73 1.63A2.544 2.544 0 0167 73.497c-1 0-1.91-.591-2.319-1.505zm14.964 8.128l-.829 6.352-10.178-10.177a5.6 5.6 0 002.602-1.702 5.594 5.594 0 004.647-.43 5.583 5.583 0 002.34-2.641l7.771 7.77-6.353.828z" fill="#083C6E"/><defs><filter id="kfilter0_d" x="0" y="0" width="136" height="136" filterUnits="userSpaceOnUse" color-interpolation-filters="sRGB"><feFlood flood-opacity="0" result="BackgroundImageFix"/><feColorMatrix in="SourceAlpha" values="0 0 0 0 0 0 0 0 0 0 0 0 0 0 0 0 0 0 127 0" result="hardAlpha"/><feOffset dx="1" dy="1"/><feGaussianBlur stdDeviation="10"/><feColorMatrix values="0 0 0 0 0 0 0 0 0 0 0 0 0 0 0 0 0 0 0.07 0"/><feBlend in2="BackgroundImageFix" result="effect1_dropShadow"/><feBlend in="SourceGraphic" in2="effect1_dropShadow" result="shape"/></filter></defs></svg><svg fill="none" viewBox="0 0 136 136" id="css--shipping" xmlns="http://www.w3.org/2000/svg"><g filter="url(#lfilter0_d)"><circle cx="67" cy="67" r="48" fill="#fff"/></g><path d="M79.763 71.727a6.31 6.31 0 00-6.303 6.302 6.31 6.31 0 006.303 6.303 6.31 6.31 0 006.302-6.303 6.31 6.31 0 00-6.302-6.302zm0 9.454a3.155 3.155 0 01-3.152-3.152 3.155 3.155 0 013.152-3.15 3.154 3.154 0 013.15 3.15 3.154 3.154 0 01-3.15 3.152zm-21.534-9.454a6.31 6.31 0 00-6.303 6.302 6.31 6.31 0 006.303 6.303 6.31 6.31 0 006.302-6.303 6.31 6.31 0 00-6.302-6.302zm0 9.454a3.155 3.155 0 01-3.151-3.152 3.155 3.155 0 013.151-3.15 3.155 3.155 0 013.151 3.15 3.154 3.154 0 01-3.151 3.152zm25.778-27.494a1.577 1.577 0 00-1.408-.868H74.3v3.152h7.327l4.29 8.533 2.817-1.416-4.727-9.401z" fill="#083C6E"/><path d="M75.036 76.506H63.114v3.152h11.922v-3.152zm-21.534 0H48.04a1.575 1.575 0 100 3.151h5.462a1.575 1.575 0 100-3.15zm38.168-9.632l-3.1-3.992a1.574 1.574 0 00-1.244-.61h-11.45V51.245c0-.87-.705-1.576-1.576-1.576H48.04a1.575 1.575 0 100 3.151h24.685v11.03c0 .87.705 1.575 1.575 1.575h12.254l2.295 2.956v8.126h-4.36a1.575 1.575 0 100 3.151h5.935c.87 0 1.576-.705 1.576-1.575V67.84c0-.35-.117-.69-.33-.966zm-38.273 1.649H46.15a1.576 1.576 0 100 3.151h7.248a1.576 1.576 0 100-3.15zm3.624-6.197H43.576a1.576 1.576 0 100 3.151H57.02a1.576 1.576 0 100-3.151z" fill="#083C6E"/><path d="M59.594 56.128H46.15a1.575 1.575 0 100 3.151h13.445a1.575 1.575 0 100-3.15z" fill="#083C6E"/><defs><filter id="lfilter0_d" x="0" y="0" width="136" height="136" filterUnits="userSpaceOnUse" color-interpolation-filters="sRGB"><feFlood flood-opacity="0" result="BackgroundImageFix"/><feColorMatrix in="SourceAlpha" values="0 0 0 0 0 0 0 0 0 0 0 0 0 0 0 0 0 0 127 0" result="hardAlpha"/><feOffset dx="1" dy="1"/><feGaussianBlur stdDeviation="10"/><feColorMatrix values="0 0 0 0 0 0 0 0 0 0 0 0 0 0 0 0 0 0 0.07 0"/><feBlend in2="BackgroundImageFix" result="effect1_dropShadow"/><feBlend in="SourceGraphic" in2="effect1_dropShadow" result="shape"/></filter></defs></svg><svg fill="none" viewBox="0 0 24 24" id="css--twitter" xmlns="http://www.w3.org/2000/svg"><path d="M22 5.8a8.49 8.49 0 01-2.36.64 4.13 4.13 0 001.81-2.27 8.21 8.21 0 01-2.61 1 4.1 4.1 0 00-7 3.74 11.64 11.64 0 01-8.45-4.29 4.16 4.16 0 00-.55 2.07 4.09 4.09 0 001.82 3.41 4.05 4.05 0 01-1.86-.51v.05a4.1 4.1 0 003.3 4 3.933 3.933 0 01-1.1.17 4.907 4.907 0 01-.77-.07 4.11 4.11 0 003.83 2.84A8.22 8.22 0 012 18.28a11.57 11.57 0 006.29 1.85A11.589 11.589 0 0020 8.45v-.53a8.43 8.43 0 002-2.12z" fill="#fff"/></svg><svg fill="none" viewBox="0 0 38 24" id="css--visa" xmlns="http://www.w3.org/2000/svg"><path opacity=".07" d="M35 0H3C1.3 0 0 1.3 0 3v18c0 1.7 1.4 3 3 3h32c1.7 0 3-1.3 3-3V3c0-1.7-1.4-3-3-3z" fill="#000"/><path d="M35 1c1.1 0 2 .9 2 2v18c0 1.1-.9 2-2 2H3c-1.1 0-2-.9-2-2V3c0-1.1.9-2 2-2h32z" fill="#fff"/><path d="M28.3 10.1H28c-.4 1-.7 1.5-1 3h1.9c-.3-1.5-.3-2.2-.6-3zm2.9 5.9h-1.7c-.1 0-.1 0-.2-.1l-.2-.9-.1-.2h-2.4c-.1 0-.2 0-.2.2l-.3.9c0 .1-.1.1-.1.1h-2.1l.2-.5L27 8.7c0-.5.3-.7.8-.7h1.5c.1 0 .2 0 .2.2l1.4 6.5c.1.4.2.7.2 1.1.1.1.1.1.1.2zm-13.4-.3l.4-1.8c.1 0 .2.1.2.1.7.3 1.4.5 2.1.4.2 0 .5-.1.7-.2.5-.2.5-.7.1-1.1-.2-.2-.5-.3-.8-.5-.4-.2-.8-.4-1.1-.7-1.2-1-.8-2.4-.1-3.1.6-.4.9-.8 1.7-.8 1.2 0 2.5 0 3.1.2h.1c-.1.6-.2 1.1-.4 1.7-.5-.2-1-.4-1.5-.4-.3 0-.6 0-.9.1-.2 0-.3.1-.4.2-.2.2-.2.5 0 .7l.5.4c.4.2.8.4 1.1.6.5.3 1 .8 1.1 1.4.2.9-.1 1.7-.9 2.3-.5.4-.7.6-1.4.6-1.4 0-2.5.1-3.4-.2-.1.2-.1.2-.2.1zm-3.5.3c.1-.7.1-.7.2-1 .5-2.2 1-4.5 1.4-6.7.1-.2.1-.3.3-.3H18c-.2 1.2-.4 2.1-.7 3.2-.3 1.5-.6 3-1 4.5 0 .2-.1.2-.3.2l-1.7.1zM5 8.2c0-.1.2-.2.3-.2h3.4c.5 0 .9.3 1 .8l.9 4.4c0 .1 0 .1.1.2 0-.1.1-.1.1-.1l2.1-5.1c-.1-.1 0-.2.1-.2h2.1c0 .1 0 .1-.1.2l-3.1 7.3c-.1.2-.1.3-.2.4-.1.1-.3 0-.5 0H9.7c-.1 0-.2 0-.2-.2L7.9 9.5c-.2-.2-.5-.5-.9-.6-.6-.3-1.7-.5-1.9-.5L5 8.2z" fill="#142688"/></svg><svg fill="none" viewBox="0 0 136 136" id="css--warranty" xmlns="http://www.w3.org/2000/svg"><g filter="url(#ofilter0_d)"><circle cx="67" cy="67" r="48" fill="#fff"/></g><path d="M89.734 60.526c-.581-1.72-1.98-2.804-3.213-3.762-.659-.51-1.282-.993-1.641-1.467-.367-.482-.657-1.203-.963-1.967-.567-1.413-1.211-3.014-2.701-4.053-1.459-1.02-3.216-1.114-4.767-1.195-.872-.047-1.695-.091-2.322-.287-.575-.178-1.238-.593-1.94-1.032C70.862 45.937 69.361 45 67.498 45s-3.362.937-4.685 1.763c-.703.44-1.366.853-1.941 1.033-.627.195-1.451.239-2.324.286-1.55.083-3.306.176-4.767 1.195-1.488 1.04-2.132 2.64-2.7 4.052-.306.764-.597 1.486-.964 1.97-.36.474-.983.957-1.643 1.468-1.23.956-2.628 2.04-3.21 3.758-.565 1.67-.11 3.32.29 4.774.224.81.434 1.575.434 2.201 0 .627-.21 1.391-.434 2.202-.4 1.454-.855 3.103-.29 4.775.583 1.718 1.98 2.8 3.212 3.757.66.511 1.282.994 1.642 1.467.366.484.656 1.205.963 1.97.568 1.413 1.212 3.013 2.703 4.055 1.459 1.017 3.215 1.11 4.764 1.192.873.047 1.697.091 2.324.286.574.18 1.237.594 1.938 1.032 1.324.827 2.825 1.764 4.688 1.764 1.864 0 3.366-.937 4.69-1.764.702-.438 1.364-.852 1.939-1.032.626-.195 1.45-.239 2.323-.286 1.55-.082 3.306-.176 4.765-1.193 1.49-1.04 2.134-2.643 2.703-4.057.306-.763.596-1.485.96-1.965.36-.475.983-.958 1.642-1.468 1.233-.956 2.632-2.04 3.213-3.758.567-1.672.111-3.32-.29-4.776-.224-.81-.435-1.576-.435-2.202 0-.626.211-1.391.435-2.201.401-1.453.856-3.104.29-4.772zM85.83 70.699c.27.98.55 1.995.353 2.575-.22.65-1.104 1.335-1.959 1.998-.822.637-1.671 1.295-2.331 2.165-.67.882-1.069 1.875-1.454 2.834-.41 1.017-.796 1.978-1.37 2.379-.58.406-1.667.463-2.818.525-1.065.057-2.165.115-3.238.45-1.036.322-1.938.885-2.81 1.43-.984.615-1.914 1.195-2.704 1.195-.789 0-1.718-.58-2.701-1.193-.873-.545-1.775-1.11-2.81-1.431-1.074-.335-2.174-.394-3.239-.45-1.151-.061-2.238-.12-2.817-.524-.575-.401-.96-1.362-1.37-2.38-.387-.959-.786-1.952-1.457-2.835-.659-.869-1.508-1.528-2.33-2.165-.854-.662-1.738-1.348-1.958-1.997-.196-.581.083-1.596.353-2.578.266-.966.568-2.063.568-3.196s-.302-2.23-.568-3.197c-.27-.98-.55-1.994-.353-2.576.22-.65 1.103-1.334 1.957-1.996.822-.639 1.673-1.298 2.33-2.166.672-.884 1.072-1.878 1.459-2.838.408-1.016.794-1.976 1.366-2.375.582-.407 1.67-.465 2.82-.527 1.065-.057 2.165-.117 3.237-.45 1.037-.322 1.94-.886 2.813-1.43.984-.617 1.912-1.196 2.7-1.196.79 0 1.718.58 2.702 1.193.874.546 1.776 1.11 2.812 1.43 1.074.335 2.173.395 3.236.45 1.152.062 2.24.12 2.82.528.574.4.959 1.36 1.368 2.376.386.96.786 1.953 1.457 2.837.659.867 1.508 1.526 2.33 2.164.854.662 1.738 1.348 1.959 1.999.197.58-.084 1.594-.354 2.574-.267.968-.57 2.065-.57 3.199s.303 2.231.57 3.199z" fill="#083C6E"/><path d="M75.936 67.501c0 4.653-3.784 8.437-8.437 8.437-4.652 0-8.437-3.784-8.437-8.437 0-4.652 3.785-8.437 8.437-8.437h1.875v-3.75H67.5c-6.72 0-12.187 5.468-12.187 12.187 0 6.72 5.468 12.187 12.187 12.187 6.72 0 12.187-5.467 12.187-12.187v-1.875h-3.75v1.875z" fill="#083C6E"/><path d="M65.624 62.975l-2.65 2.651 4.525 4.526 10.151-10.15L75 57.35l-7.5 7.5-1.875-1.876z" fill="#083C6E"/><defs><filter id="ofilter0_d" x="0" y="0" width="136" height="136" filterUnits="userSpaceOnUse" color-interpolation-filters="sRGB"><feFlood flood-opacity="0" result="BackgroundImageFix"/><feColorMatrix in="SourceAlpha" values="0 0 0 0 0 0 0 0 0 0 0 0 0 0 0 0 0 0 127 0" result="hardAlpha"/><feOffset dx="1" dy="1"/><feGaussianBlur stdDeviation="10"/><feColorMatrix values="0 0 0 0 0 0 0 0 0 0 0 0 0 0 0 0 0 0 0.07 0"/><feBlend in2="BackgroundImageFix" result="effect1_dropShadow"/><feBlend in="SourceGraphic" in2="effect1_dropShadow" result="shape"/></filter></defs></svg></svg>